<?xml version="1.0" encoding="UTF-8" standalone="no"?>
<svg
   xmlns:dc="http://purl.org/dc/elements/1.1/"
   xmlns:cc="http://creativecommons.org/ns#"
   xmlns:rdf="http://www.w3.org/1999/02/22-rdf-syntax-ns#"
   xmlns:svg="http://www.w3.org/2000/svg"
   xmlns="http://www.w3.org/2000/svg"
   xmlns:sodipodi="http://sodipodi.sourceforge.net/DTD/sodipodi-0.dtd"
   xmlns:inkscape="http://www.inkscape.org/namespaces/inkscape"
   viewBox="0 0 400 300"
   width="100%"
   height="100%"
   version="1.1"
   id="svg14629"
   sodipodi:docname="glow.svg"
   inkscape:version="1.0.1 (3bc2e813f5, 2020-09-07)">
  <metadata
     id="metadata14633">
    <rdf:RDF>
      <cc:Work
         rdf:about="">
        <dc:format>image/svg+xml</dc:format>
        <dc:type
           rdf:resource="http://purl.org/dc/dcmitype/StillImage" />
        <dc:title></dc:title>
      </cc:Work>
    </rdf:RDF>
  </metadata>
  <sodipodi:namedview
     pagecolor="#ffffff"
     bordercolor="#666666"
     borderopacity="1"
     objecttolerance="10"
     gridtolerance="10"
     guidetolerance="10"
     inkscape:pageopacity="0"
     inkscape:pageshadow="2"
     inkscape:window-width="1920"
     inkscape:window-height="1001"
     id="namedview14631"
     showgrid="false"
     inkscape:zoom="1.0129691"
     inkscape:cx="90.23912"
     inkscape:cy="60.551883"
     inkscape:window-x="-9"
     inkscape:window-y="-9"
     inkscape:window-maximized="1"
     inkscape:current-layer="svg14629" />
  <defs
     id="defs14599">
    <filter
       id="shadow-blur"
       x="-20%"
       y="-20%"
       width="140%"
       height="140%">
      <feGaussianBlur
         stdDeviation="4"
         id="feGaussianBlur14593" />
    </filter>
    <filter
       id="shadow-blur-small"
       x="-20%"
       y="-20%"
       width="140%"
       height="140%">
      <feGaussianBlur
         stdDeviation="2"
         id="feGaussianBlur14596" />
    </filter>
  </defs>
  <ellipse
     cx="-560.87848"
     cy="458.42923"
     rx="160"
     ry="90"
     fill="#000000"
     opacity="0.15"
     filter="url(#shadow-blur)"
     id="ellipse14601" />
  <ellipse
     cx="-560.87848"
     cy="451.42923"
     rx="160"
     ry="90"
     fill="#b4b6b8"
     id="ellipse14603" />
  <path
     d="m -720.87847,426.42924 v 25 a 160,90 0 0 0 320,0 v -25 a 160,90 0 0 1 -320,0 z"
     fill="#b4b6b8"
     id="path14605" />
  <ellipse
     cx="-560.87848"
     cy="426.42923"
     rx="159"
     ry="89"
     fill="#e4e6e7"
     stroke="#ffffff"
     stroke-width="2"
     id="ellipse14607" />
  <ellipse
     cx="-560.87848"
     cy="431.42923"
     rx="115"
     ry="64"
     fill="#000000"
     opacity="0.25"
     filter="url(#shadow-blur)"
     id="ellipse14609" />
  <ellipse
     cx="-560.87848"
     cy="426.42923"
     rx="115"
     ry="64"
     fill="#46484a"
     id="ellipse14611" />
  <path
     d="m -675.87847,411.42924 v 15 a 115,64 0 0 0 230,0 v -15 a 115,64 0 0 1 -230,0 z"
     fill="#46484a"
     id="path14613" />
  <path
     d="m -630.87847,411.42924 a 70,39 0 0 1 140,0 v 10 a 70,39 0 0 0 -140,0 z"
     fill="#333537"
     id="path14615" />
  <ellipse
     cx="-560.87848"
     cy="421.42923"
     rx="70"
     ry="39"
     fill="#dcdedd"
     stroke="#ffffff"
     stroke-width="1"
     id="ellipse14617" />
  <path
     d="m -675.87847,411.42924 a 115,64 0 1 0 230,0 115,64 0 1 0 -230,0 m 45,0 a 70,39 0 1 1 140,0 70,39 0 1 1 -140,0"
     fill-rule="evenodd"
     fill="#5a5c5f"
     stroke="#7b7e81"
     stroke-width="2"
     id="path14619" />
  <ellipse
     cx="-560.87848"
     cy="425.42923"
     rx="50"
     ry="28"
     fill="#000000"
     opacity="0.25"
     filter="url(#shadow-blur-small)"
     id="ellipse14621" />
  <ellipse
     cx="-560.87848"
     cy="421.42923"
     rx="50"
     ry="28"
     fill="#46484a"
     id="ellipse14623" />
  <path
     d="m -610.87847,411.42924 v 10 a 50,28 0 0 0 100,0 v -10 a 50,28 0 0 1 -100,0 z"
     fill="#46484a"
     id="path14625" />
  <ellipse
     cx="-560.87848"
     cy="411.42923"
     rx="49"
     ry="27"
     fill="#5a5c5f"
     stroke="#7b7e81"
     stroke-width="2"
     id="ellipse14627" />
  <path
     id="rect14635"
     style="opacity:0.998;fill:#ffffff;stroke:#ffffff;stroke-width:23.5346;stroke-linecap:round;stroke-linejoin:round;paint-order:stroke fill markers;stroke-opacity:1"
     d="m 139.69247,16.41289 -72.697478,14.84365 31.21883,108.06379 v 0 l 6.599208,10.57074 c 7.41039,8.1596 22.78007,20.73191 46.51574,28.20304 30.52493,8.07714 65.30288,7.3388 97.61815,0.45125 24.75959,-7.74553 35.84403,-16.4481 44.10948,-24.8231 l 7.0395,-11.01217 1.65278,-9.90649 21.96981,-105.6533 -68.51006,-12.1953 -21.7618,-1.6817 -68.09066,0.18014 z"
     sodipodi:nodetypes="ccccccccccccccc" />
</svg>
