<?xml version="1.0" standalone="no"?> <!DOCTYPE svg PUBLIC "-//W3C//DTD SVG 20010904//EN" "http://www.w3.org/TR/2001/REC-SVG-20010904/DTD/svg10.dtd"> <svg version="1.0" xmlns="http://www.w3.org/2000/svg" width="1536.000000pt" height="1536.000000pt" viewBox="0 0 1536.000000 1536.000000" preserveAspectRatio="xMidYMid meet"> <g transform="translate(0.000000,1536.000000) scale(0.100000,-0.100000)" fill="#ffffff" stroke="none"> <path d="M5995 13045 c-38 -7 -86 -18 -105 -25 -94 -34 -210 -105 -283 -172 -95 -88 -189 -173 -302 -273 -43 -38 -86 -77 -94 -86 -9 -8 -153 -139 -321 -289 -168 -151 -330 -297 -360 -326 -30 -28 -77 -70 -104 -94 -27 -23 -54 -47 -61 -53 -29 -29 -194 -178 -239 -216 -27 -23 -54 -48 -61 -54 -70 -68 -134 -126 -205 -187 -71 -61 -135 -119 -205 -187 -7 -6 -34 -31 -61 -54 -40 -34 -192 -171 -238 -214 -19 -18 -129 -117 -211 -190 -43 -38 -83 -75 -89 -80 -19 -19 -129 -118 -210 -190 -44 -38 -91 -81 -105 -95 -14 -14 -64 -59 -111 -99 -163 -142 -252 -232 -271 -276 -5 -11 -13 -28 -19 -37 -5 -10 -15 -26 -20 -35 -6 -10 -13 -25 -16 -33 -3 -8 -12 -28 -20 -43 -7 -16 -14 -41 -14 -57 0 -15 -7 -44 -15 -63 -30 -72 -14 -286 29 -392 55 -135 141 -257 229 -326 118 -93 208 -172 331 -288 38 -36 74 -71 80 -76 60 -54 247 -225 267 -245 32 -30 108 -102 209 -195 146 -135 324 -300 349 -325 15 -14 49 -45 76 -69 39 -35 266 -246 329 -306 6 -6 40 -37 76 -70 52 -47 169 -155 344 -320 6 -6 40 -37 76 -70 36 -32 99 -90 141 -129 140 -132 334 -312 404 -376 39 -36 75 -69 81 -75 259 -244 371 -337 434 -361 8 -3 23 -9 32 -14 40 -22 139 -48 218 -59 67 -8 107 -8 185 3 55 7 111 18 125 23 14 6 45 19 70 29 199 80 389 301 430 499 42 204 36 287 -32 468 -54 142 -123 224 -398 472 -70 63 -287 264 -329 305 -14 14 -78 73 -141 130 -63 58 -127 116 -141 130 -67 64 -154 145 -269 250 -68 63 -136 126 -151 140 -111 106 -272 254 -311 286 -26 21 -47 45 -47 52 -1 9 444 12 2192 12 1956 0 2203 -1 2297 -16 164 -24 301 -54 395 -86 17 -5 44 -13 60 -18 17 -5 55 -18 85 -30 30 -12 67 -25 81 -30 14 -4 34 -12 45 -18 10 -6 66 -34 124 -62 58 -28 119 -60 135 -71 17 -10 37 -22 45 -26 49 -23 282 -195 349 -257 180 -168 352 -366 428 -491 6 -11 34 -56 60 -100 62 -101 148 -277 187 -382 39 -103 45 -121 61 -178 9 -33 23 -81 31 -106 8 -26 14 -56 14 -68 0 -12 6 -50 14 -84 23 -99 46 -322 46 -447 0 -244 -65 -618 -136 -788 -8 -18 -14 -40 -14 -48 0 -9 -6 -28 -14 -42 -8 -15 -24 -52 -36 -82 -25 -62 -97 -208 -129 -260 -11 -19 -24 -42 -28 -50 -4 -8 -27 -44 -52 -80 -25 -36 -59 -85 -76 -110 -33 -49 -47 -66 -146 -179 -164 -187 -397 -377 -619 -504 -66 -37 -238 -121 -290 -141 -25 -10 -58 -24 -73 -32 -16 -8 -37 -14 -47 -14 -11 0 -34 -6 -52 -14 -94 -39 -321 -91 -478 -109 -52 -5 -1360 -12 -3330 -16 -3165 -6 -3246 -6 -3295 -25 -152 -58 -245 -117 -337 -212 -170 -175 -245 -445 -188 -679 41 -168 146 -328 280 -429 64 -48 89 -64 110 -72 8 -3 23 -10 32 -15 40 -21 108 -40 188 -54 73 -13 524 -15 3195 -15 2030 0 3173 3 3290 10 254 15 504 53 725 110 25 6 63 15 85 19 23 4 47 11 55 16 7 4 30 12 49 16 20 4 52 13 71 19 58 21 108 39 153 56 23 9 60 23 82 31 75 28 286 121 325 143 8 5 35 19 60 31 25 13 78 42 118 66 41 24 75 43 77 43 3 0 58 35 185 119 58 38 252 180 260 191 3 4 28 24 55 46 154 120 452 423 575 584 19 25 38 50 43 55 67 87 197 271 197 280 0 2 13 23 29 47 16 24 39 61 51 83 12 22 30 54 40 70 44 72 210 416 210 436 0 6 6 23 14 37 19 37 47 114 88 242 11 36 26 81 33 100 15 43 34 112 44 165 4 22 13 58 19 80 53 196 102 626 102 890 0 194 -35 548 -72 720 -6 28 -14 70 -19 95 -11 60 -34 158 -47 201 -6 19 -18 61 -28 94 -9 33 -21 71 -27 85 -5 14 -13 39 -17 55 -9 35 -28 87 -46 130 -7 17 -20 50 -29 75 -43 115 -140 320 -210 445 -19 33 -39 69 -45 80 -6 11 -19 34 -30 50 -11 17 -23 37 -27 45 -10 22 -105 163 -120 178 -7 8 -18 23 -25 35 -41 78 -273 353 -427 507 -230 230 -547 475 -791 614 -36 20 -72 41 -80 46 -14 9 -62 34 -175 92 -45 24 -99 49 -205 95 -19 9 -48 22 -63 29 -16 8 -36 14 -45 14 -9 0 -26 7 -36 15 -11 8 -28 15 -38 15 -9 0 -32 6 -50 14 -74 31 -135 51 -283 91 -185 50 -287 71 -595 117 -67 10 -570 13 -2340 15 -1240 2 -2261 5 -2268 8 -9 3 7 24 44 57 32 29 69 64 83 77 14 12 60 53 100 90 124 109 265 237 290 261 9 9 59 54 111 100 52 47 103 93 115 103 11 11 56 52 100 92 44 39 130 117 190 171 61 54 112 101 115 105 3 3 50 45 105 94 55 49 123 109 150 135 28 26 95 87 150 136 171 151 241 235 296 354 92 197 88 429 -10 640 -33 70 -71 121 -145 196 -71 70 -172 144 -198 144 -8 0 -18 4 -23 9 -31 30 -222 71 -320 69 -27 0 -81 -6 -120 -13z"/> </g> </svg>