<?xml version="1.0" standalone="no"?> <!DOCTYPE svg PUBLIC "-//W3C//DTD SVG 20010904//EN" "http://www.w3.org/TR/2001/REC-SVG-20010904/DTD/svg10.dtd"> <svg version="1.0" xmlns="http://www.w3.org/2000/svg" width="1602.000000pt" height="1278.000000pt" viewBox="0 0 1602.000000 1278.000000" preserveAspectRatio="xMidYMid meet"> <g transform="translate(0.000000,1278.000000) scale(0.100000,-0.100000)" fill="#ffffff" stroke="none"> <path d="M3515 10855 c-173 -16 -335 -48 -410 -80 -16 -7 -50 -21 -75 -30 -50 -18 -174 -78 -204 -97 -123 -80 -195 -142 -271 -234 -39 -47 -82 -126 -122 -224 -17 -43 -18 -199 -18 -4095 l0 -4050 39 -90 c21 -49 61 -120 89 -157 65 -86 184 -184 290 -238 27 -14 63 -33 80 -42 18 -9 64 -26 102 -38 39 -12 86 -28 105 -35 64 -23 134 -37 260 -51 104 -11 850 -13 4395 -13 4407 0 4463 0 4587 37 18 6 60 18 93 28 124 35 162 50 255 97 226 115 377 279 433 472 17 57 18 264 15 4110 l-3 4050 -54 109 c-46 92 -67 122 -140 196 -114 116 -254 206 -411 266 -25 9 -58 22 -75 29 -85 37 -281 72 -465 84 -226 14 -8341 10 -8495 -4z m8424 -725 c42 -22 72 -47 87 -72 l24 -38 0 -800 c0 -865 2 -827 -53 -878 -14 -13 -55 -35 -92 -48 l-66 -24 -4053 0 -4052 0 -63 21 c-66 22 -124 70 -142 116 -5 14 -9 344 -9 809 0 642 2 791 14 817 21 52 124 121 191 130 17 2 1857 4 4090 3 l4060 -1 64 -35z m-6401 -2566 c111 -22 215 -75 282 -143 99 -100 95 -71 98 -581 4 -490 0 -528 -51 -595 -33 -43 -94 -105 -104 -105 -4 0 -14 -6 -22 -14 -26 -23 -171 -73 -251 -88 -58 -10 -234 -13 -785 -13 -640 0 -718 2 -787 17 -42 10 -87 22 -100 27 -89 34 -118 49 -153 75 -52 39 -80 69 -113 119 l-27 41 0 502 0 502 39 56 c22 32 54 70 73 85 50 41 170 97 238 109 33 7 69 13 80 16 11 2 354 4 763 5 639 1 754 -1 820 -15z m3108 -6 c103 -32 187 -79 244 -137 102 -101 95 -57 95 -611 0 -549 5 -515 -83 -611 -49 -54 -97 -83 -196 -121 -50 -20 -79 -26 -201 -48 -37 -6 -310 -10 -723 -10 -530 0 -677 3 -735 14 -40 8 -83 16 -97 19 -44 9 -156 54 -196 80 -53 33 -121 109 -145 160 -17 39 -19 72 -19 515 0 463 0 474 21 515 32 63 77 115 123 145 74 46 150 79 211 90 33 7 69 14 80 16 11 2 369 3 795 2 674 -2 782 -4 826 -18z m3036 6 c105 -21 219 -77 285 -139 11 -11 35 -45 52 -76 l31 -56 0 -485 c0 -465 -1 -487 -20 -531 -19 -42 -77 -107 -128 -143 -45 -31 -170 -76 -265 -95 -92 -18 -145 -19 -777 -19 -634 0 -685 1 -777 20 -87 17 -130 30 -223 68 -14 5 -55 38 -92 73 -110 107 -108 95 -108 622 0 476 1 486 54 570 51 81 180 158 311 188 73 16 148 18 827 18 655 1 758 -1 830 -15z m-6140 -1980 c121 -25 201 -65 280 -144 100 -100 98 -85 98 -622 l0 -449 -27 -57 c-44 -94 -140 -176 -255 -217 -124 -45 -180 -48 -883 -52 -633 -4 -677 -3 -792 16 -219 36 -347 108 -416 236 -22 40 -22 46 -22 536 l0 497 39 56 c63 91 192 172 311 194 33 7 69 13 80 16 11 2 354 4 762 5 652 1 753 -1 825 -15z m3098 -3 c78 -23 123 -44 188 -88 76 -51 106 -84 135 -143 22 -44 22 -55 25 -504 3 -516 2 -525 -68 -607 -47 -55 -132 -114 -201 -140 -136 -50 -169 -52 -879 -57 -578 -3 -680 -1 -780 13 -134 19 -194 36 -270 77 -64 34 -93 58 -136 113 -67 86 -64 57 -64 575 0 521 -2 500 67 592 63 82 162 138 298 168 74 17 142 18 860 16 609 -2 790 -5 825 -15z m3056 0 c158 -36 287 -123 333 -225 20 -47 21 -60 21 -531 0 -547 2 -534 -83 -614 -65 -62 -87 -76 -160 -105 -65 -26 -103 -35 -242 -56 -33 -5 -350 -10 -705 -10 -596 0 -654 2 -760 20 -181 31 -243 58 -336 147 -47 44 -67 72 -83 116 -20 56 -21 75 -21 501 0 484 2 500 57 576 27 35 80 81 138 117 43 27 94 45 175 63 78 17 143 19 835 19 691 0 756 -1 831 -18z m-6148 -1980 c48 -11 105 -27 127 -36 98 -41 208 -154 233 -241 9 -29 12 -170 12 -486 0 -493 0 -489 -65 -578 -19 -26 -65 -67 -102 -92 -62 -41 -90 -52 -223 -89 -34 -10 -226 -14 -770 -17 -757 -4 -771 -3 -935 39 -109 28 -233 119 -278 203 -22 41 -22 46 -22 536 0 493 0 495 22 535 30 53 47 72 113 124 68 54 121 77 230 101 78 17 145 19 828 19 700 1 747 0 830 -18z m3068 -1 c114 -25 156 -42 224 -93 73 -55 98 -83 124 -137 20 -44 21 -56 21 -525 l0 -480 -27 -56 c-43 -87 -153 -172 -263 -202 -172 -47 -165 -47 -902 -47 -656 0 -704 1 -798 20 -55 11 -120 27 -143 35 -103 37 -203 125 -243 214 -18 41 -19 70 -19 511 0 441 1 470 19 511 27 60 82 123 150 168 69 46 99 58 198 81 71 16 150 18 823 19 706 1 751 0 836 -19z m3281 -246 c37 -11 69 -29 99 -58 38 -37 44 -48 44 -83 0 -55 -34 -102 -95 -133 l-50 -25 -1030 0 -1030 0 -47 23 c-54 25 -108 91 -108 130 0 61 75 131 161 150 27 6 421 10 1022 11 868 1 985 -1 1034 -15z m50 -741 c130 -70 122 -209 -17 -269 -43 -18 -77 -19 -1065 -19 -988 0 -1022 1 -1065 19 -78 34 -129 107 -115 163 10 43 86 110 137 121 27 6 433 9 1063 9 l1020 -2 42 -22z"/> <path d="M4115 7251 c-36 -7 -65 -27 -88 -61 -15 -22 -17 -62 -17 -377 0 -402 1 -405 75 -442 41 -21 52 -21 627 -21 568 0 587 1 632 20 77 35 76 29 76 436 0 338 -1 358 -20 389 -38 62 -18 60 -665 61 -324 1 -604 -1 -620 -5z"/> <path d="M7186 7250 c-26 -5 -50 -19 -68 -39 l-28 -31 0 -374 c0 -363 1 -374 21 -400 11 -14 26 -26 34 -26 7 0 18 -7 25 -15 11 -13 91 -15 614 -15 l601 1 40 23 c22 12 46 34 53 47 9 18 12 112 10 396 l-3 373 -26 25 c-14 15 -43 30 -65 35 -47 11 -1152 11 -1208 0z"/> <path d="M10262 7251 c-18 -3 -48 -19 -67 -34 l-35 -28 0 -383 0 -383 23 -20 c59 -55 39 -53 677 -53 575 0 592 1 631 20 79 41 79 39 78 430 -1 380 -3 390 -63 433 l-31 22 -590 1 c-324 1 -605 -1 -623 -5z"/> <path d="M4165 5270 c-86 -5 -113 -17 -139 -61 -14 -24 -16 -73 -16 -387 0 -350 1 -360 21 -386 11 -15 38 -35 60 -46 37 -19 60 -20 626 -19 584 0 588 0 633 22 24 12 50 33 57 47 10 19 13 116 13 391 0 349 -1 367 -20 391 -10 14 -32 30 -47 37 -29 11 -1029 21 -1188 11z"/> <path d="M7143 5250 c-17 -10 -37 -28 -42 -39 -7 -13 -11 -147 -11 -388 0 -414 -2 -399 74 -434 39 -17 76 -19 624 -19 557 0 585 1 626 20 74 33 71 13 74 411 2 197 -1 373 -6 391 -5 20 -21 42 -42 56 l-33 22 -616 0 c-592 0 -617 -1 -648 -20z"/> <path d="M10282 5273 c-4 -1 -19 -4 -34 -7 -14 -3 -40 -18 -57 -32 l-31 -26 0 -382 0 -383 23 -19 c62 -55 51 -54 676 -54 558 0 580 1 624 20 28 12 54 33 66 53 19 32 20 47 18 387 -2 349 -2 356 -24 386 -12 17 -35 36 -50 43 -20 8 -204 12 -616 14 -323 1 -590 1 -595 0z"/> <path d="M4069 3267 c-60 -40 -59 -37 -57 -432 3 -328 5 -362 21 -387 40 -58 42 -58 687 -58 515 0 595 2 629 16 73 29 71 19 71 436 0 329 -2 376 -16 397 -36 51 -38 51 -692 51 l-609 0 -34 -23z"/> <path d="M7139 3265 c-20 -13 -39 -31 -43 -40 -3 -9 -6 -184 -6 -388 0 -412 -2 -396 67 -431 28 -14 100 -16 628 -16 637 0 636 0 680 50 19 21 20 39 23 369 2 190 1 365 -3 389 -5 36 -13 47 -45 67 l-40 25 -612 0 -613 0 -36 -25z"/> </g> </svg>