<?xml version="1.0" standalone="no"?> <!DOCTYPE svg PUBLIC "-//W3C//DTD SVG 20010904//EN" "http://www.w3.org/TR/2001/REC-SVG-20010904/DTD/svg10.dtd"> <svg version="1.0" xmlns="http://www.w3.org/2000/svg" width="1800.000000pt" height="1728.000000pt" viewBox="0 0 1800.000000 1728.000000" preserveAspectRatio="xMidYMid meet"> <g transform="translate(0.000000,1728.000000) scale(0.100000,-0.100000)" fill="#ffffff" stroke="none"> <path d="M8695 15530 c-457 -23 -942 -205 -1330 -500 -135 -102 -145 -111 -256 -220 -144 -143 -246 -268 -369 -455 -65 -99 -186 -326 -215 -405 -7 -19 -27 -73 -44 -120 -17 -47 -35 -101 -40 -120 -5 -19 -18 -71 -30 -114 -45 -164 -81 -441 -81 -626 0 -187 32 -434 81 -624 12 -45 25 -97 30 -116 4 -19 18 -60 29 -90 12 -30 25 -66 30 -80 28 -86 157 -348 211 -428 16 -24 29 -45 29 -47 0 -14 207 -290 324 -434 195 -238 296 -479 311 -741 18 -319 62 -447 200 -585 78 -79 123 -107 255 -162 42 -17 95 -18 1055 -18 l1010 0 58 23 c131 51 230 121 296 212 100 136 129 238 146 515 17 257 115 501 295 730 292 371 376 496 487 725 102 209 135 301 190 525 30 125 51 266 64 429 30 385 -54 867 -206 1191 -255 543 -586 915 -1080 1212 -40 24 -262 132 -300 146 -22 8 -78 29 -125 46 -110 41 -327 95 -460 114 -126 19 -373 26 -565 17z m440 -745 c107 -17 207 -38 261 -55 128 -41 274 -105 361 -156 99 -59 133 -82 187 -123 269 -203 495 -492 613 -785 48 -119 53 -139 87 -296 46 -211 56 -400 31 -605 -48 -412 -167 -670 -502 -1090 -160 -201 -234 -312 -312 -470 -80 -163 -85 -173 -114 -265 -47 -144 -91 -367 -99 -495 l-3 -40 -255 0 -255 0 -3 853 c-1 470 1 860 6 867 4 8 132 139 283 292 179 180 284 294 299 323 34 67 33 170 -3 227 -34 54 -84 93 -139 110 -57 17 -85 16 -144 -3 -43 -15 -81 -48 -292 -258 -133 -133 -247 -243 -253 -245 -5 -1 -108 95 -227 214 -263 264 -281 279 -353 295 -47 11 -64 10 -110 -3 -66 -20 -122 -65 -151 -120 -28 -57 -28 -157 1 -212 20 -38 127 -152 447 -476 l144 -146 -2 -859 -3 -859 -255 0 -255 0 -2 55 c-5 105 -40 289 -84 437 -43 146 -133 343 -222 485 -48 76 -86 127 -275 371 -300 386 -418 672 -452 1087 -29 368 56 740 243 1060 183 312 474 579 800 733 197 94 378 141 657 171 57 6 248 -4 345 -19z"/> <path d="M4260 11670 c-183 -51 -311 -149 -406 -310 -79 -133 -104 -252 -104 -500 0 -69 -4 -130 -8 -137 -5 -8 -127 -13 -457 -16 -427 -3 -453 -5 -512 -25 -246 -84 -420 -270 -484 -516 -18 -68 -19 -200 -19 -3599 0 -3904 -5 -3591 63 -3737 106 -228 298 -376 541 -419 41 -8 756 -11 2240 -11 l2181 0 50 -24 c37 -17 82 -57 170 -151 176 -189 288 -272 455 -342 102 -43 129 -51 245 -73 92 -18 146 -20 678 -20 538 0 586 1 675 20 179 37 347 112 480 216 26 21 112 103 192 184 95 96 161 154 191 168 l45 22 2180 0 c1493 0 2199 3 2240 11 68 12 143 38 216 75 184 93 321 266 373 469 17 67 18 235 17 3606 0 3312 -1 3540 -18 3605 -25 102 -77 206 -142 282 -102 121 -191 181 -344 234 -60 21 -82 22 -508 26 -290 2 -449 7 -457 14 -10 8 -13 54 -13 172 0 241 -25 345 -117 494 -90 144 -220 236 -403 284 -71 19 -103 19 -785 15 -733 -5 -775 -7 -904 -48 -51 -16 -69 -38 -138 -169 -121 -226 -242 -399 -425 -602 -38 -42 -68 -80 -68 -87 0 -13 26 -14 66 -2 110 34 385 80 699 117 179 21 1237 33 1260 14 13 -11 15 -348 15 -3104 0 -1700 -4 -3097 -8 -3104 -7 -10 -76 -9 -355 5 -298 14 -385 15 -624 4 -457 -20 -775 -57 -1228 -146 -139 -27 -395 -90 -490 -120 -22 -7 -67 -21 -100 -30 -33 -10 -75 -24 -93 -31 -18 -8 -40 -14 -48 -14 -9 0 -30 -6 -47 -14 -18 -8 -79 -30 -137 -49 -58 -20 -130 -46 -160 -57 -30 -12 -66 -25 -80 -30 -14 -4 -51 -19 -84 -34 -32 -14 -62 -26 -67 -26 -4 0 -41 -15 -81 -34 -213 -100 -306 -139 -333 -140 l-30 -1 3 1490 c1 820 -1 1526 -5 1570 -9 94 -3 92 -148 51 -129 -37 -300 -37 -435 0 -52 14 -106 26 -120 27 l-25 2 -5 -1570 c-5 -1490 -6 -1570 -23 -1573 -9 -2 -60 17 -112 42 -52 25 -97 46 -100 46 -3 0 -33 13 -67 29 -115 52 -290 124 -368 151 -14 5 -70 25 -125 45 -707 254 -1389 384 -2183 416 -285 12 -383 10 -776 -11 -104 -6 -193 -7 -198 -2 -4 4 -8 1402 -8 3107 0 2488 2 3100 12 3108 22 15 1113 1 1268 -17 166 -19 331 -43 430 -62 155 -29 236 -46 264 -55 36 -11 66 -12 66 -1 0 4 -16 25 -35 47 -236 265 -361 441 -488 687 -46 90 -57 104 -102 123 -102 43 -193 48 -940 51 -664 2 -714 1 -775 -16z m-521 -1753 c8 -10 11 -732 11 -2696 0 -1790 4 -2715 11 -2779 23 -221 122 -381 292 -477 132 -73 252 -89 464 -61 628 84 1572 33 2213 -120 36 -8 94 -22 130 -31 180 -41 552 -158 720 -225 41 -16 93 -36 115 -45 46 -17 83 -32 140 -58 22 -10 83 -37 135 -60 105 -47 219 -101 445 -210 206 -99 274 -125 379 -142 160 -26 265 -2 523 123 380 183 452 217 613 284 69 28 139 57 155 65 60 26 141 58 190 75 212 72 301 102 366 119 179 50 307 83 349 91 25 5 133 26 240 48 627 128 1469 164 2016 86 269 -38 449 9 596 157 74 75 140 194 160 291 9 38 13 804 17 2808 l6 2755 325 6 c193 4 332 3 343 -2 16 -9 17 -179 17 -3352 0 -1838 -4 -3348 -8 -3354 -6 -10 -468 -13 -2147 -16 -2350 -4 -2193 1 -2365 -63 -165 -61 -252 -128 -485 -374 -68 -72 -106 -103 -155 -127 -129 -64 -125 -64 -686 -61 l-509 3 -69 29 c-38 15 -87 41 -110 57 -44 29 -165 151 -225 227 -19 23 -69 69 -110 101 -144 110 -269 163 -461 192 -120 18 -215 19 -2212 19 -1148 0 -2089 3 -2091 8 -9 13 -18 6686 -10 6698 5 6 15 14 23 17 8 3 155 6 326 6 250 1 314 -2 323 -12z"/> <path d="M7830 9239 c-117 -17 -215 -87 -260 -185 -32 -70 -32 -218 0 -288 29 -64 98 -131 168 -164 l57 -27 1080 -3 1080 -2 58 21 c69 26 155 100 188 162 19 35 22 58 23 147 1 96 -1 110 -28 162 -48 96 -130 157 -241 177 -70 13 -2037 13 -2125 0z"/> <path d="M8157 8223 c-13 -12 -7 -64 13 -131 127 -415 624 -629 1031 -445 152 69 255 159 332 288 49 83 87 193 87 252 l0 43 -728 0 c-401 0 -732 -3 -735 -7z"/> </g> </svg>