<?xml version="1.0" standalone="no"?> <!DOCTYPE svg PUBLIC "-//W3C//DTD SVG 20010904//EN" "http://www.w3.org/TR/2001/REC-SVG-20010904/DTD/svg10.dtd"> <svg version="1.0" xmlns="http://www.w3.org/2000/svg" width="1800.000000pt" height="1731.000000pt" viewBox="0 0 1800.000000 1731.000000" preserveAspectRatio="xMidYMid meet"> <g transform="translate(0.000000,1731.000000) scale(0.100000,-0.100000)" fill="#ffffff" stroke="none"> <path d="M12350 15085 c-90 -15 -129 -29 -196 -72 -219 -141 -286 -411 -164 -653 22 -43 197 -225 668 -693 101 -100 188 -190 194 -201 9 -16 -21 -49 -223 -252 -129 -129 -238 -234 -244 -234 -5 0 -394 384 -865 854 -470 469 -875 867 -900 883 -102 68 -193 106 -325 133 -116 25 -189 25 -306 0 -123 -26 -186 -50 -284 -107 -68 -41 -139 -106 -484 -448 -399 -396 -501 -509 -555 -615 -71 -138 -96 -244 -96 -405 0 -188 42 -332 139 -480 35 -53 533 -556 2131 -2151 1147 -1144 2105 -2098 2130 -2120 74 -66 149 -113 224 -140 157 -57 166 -58 321 -58 151 0 203 8 310 50 189 75 223 103 667 549 459 461 486 496 553 700 50 154 56 346 16 499 -36 134 -68 202 -145 306 -22 30 -413 427 -869 881 -540 538 -828 832 -826 842 6 24 449 467 468 467 8 0 189 -173 401 -384 240 -239 403 -394 434 -412 120 -68 292 -94 391 -59 22 8 47 15 55 15 18 0 112 61 154 99 40 37 99 119 118 166 43 101 53 228 25 321 -41 140 -45 144 -463 564 -217 218 -394 403 -394 411 0 8 42 55 93 104 147 142 192 207 231 334 23 77 22 257 -3 337 -65 205 -217 349 -430 404 -94 25 -176 25 -270 0 -120 -32 -192 -79 -331 -216 -69 -68 -130 -124 -135 -124 -5 0 -192 182 -415 404 -453 451 -479 472 -630 497 -30 5 -64 11 -75 13 -11 2 -54 -2 -95 -9z m-2295 -1194 c22 -10 79 -58 127 -107 47 -49 958 -959 2023 -2023 1284 -1283 1941 -1946 1951 -1969 17 -42 18 -72 3 -123 -9 -29 -52 -78 -179 -204 -92 -92 -180 -175 -196 -186 -36 -24 -113 -25 -161 -3 -47 23 -4066 4034 -4088 4081 -13 27 -16 52 -12 95 6 71 23 92 224 288 177 174 216 193 308 151z"/> <path d="M7650 14754 c-19 -2 -64 -11 -100 -19 -36 -7 -101 -21 -145 -31 -44 -9 -120 -28 -170 -40 -49 -13 -101 -26 -115 -30 -108 -26 -515 -163 -595 -199 -16 -7 -86 -37 -154 -65 -122 -51 -404 -190 -551 -271 -85 -47 -345 -209 -405 -252 -392 -280 -552 -414 -830 -692 -283 -282 -465 -502 -678 -817 -259 -381 -457 -774 -612 -1210 -28 -80 -51 -113 -59 -87 -3 8 -26 79 -51 159 -26 80 -51 153 -56 162 -5 10 -13 34 -18 55 -26 106 -73 212 -115 260 -185 211 -528 160 -642 -95 -21 -47 -26 -73 -26 -149 0 -59 5 -108 16 -140 15 -45 33 -99 149 -458 24 -77 66 -207 92 -290 26 -82 60 -188 75 -235 15 -47 69 -213 120 -370 120 -374 135 -412 180 -468 78 -98 223 -152 350 -131 111 19 136 36 714 492 43 34 90 71 105 82 15 11 80 63 146 115 65 52 160 127 210 165 50 39 116 89 146 113 30 23 59 46 64 50 84 62 250 200 273 226 106 121 122 322 37 456 -34 53 -94 105 -155 137 -47 23 -70 28 -151 31 -142 5 -160 -4 -518 -283 -168 -130 -181 -138 -181 -115 0 35 176 448 267 628 69 135 211 378 284 487 43 65 233 320 273 366 17 20 53 63 81 95 67 79 413 425 500 500 340 292 747 552 1150 734 155 71 220 99 255 110 14 5 50 18 80 30 197 77 561 179 820 230 140 28 190 43 236 73 169 108 225 322 132 505 -35 70 -87 120 -163 159 -41 21 -66 26 -140 28 -49 2 -106 1 -125 -1z"/> <path d="M8177 9397 c-935 -932 -1537 -1539 -1537 -1550 0 -21 490 -517 511 -517 7 0 640 627 1408 1394 768 767 1460 1458 1539 1535 78 78 142 147 142 153 0 15 -500 518 -515 518 -6 0 -702 -690 -1548 -1533z"/> <path d="M9117 8447 c-845 -842 -1537 -1539 -1537 -1547 0 -19 500 -510 519 -510 11 0 2127 2104 2997 2980 46 46 84 91 84 100 0 20 -490 510 -510 510 -8 0 -707 -690 -1553 -1533z"/> <path d="M4230 8880 c-152 -35 -268 -94 -390 -198 -97 -83 -717 -702 -780 -779 -158 -193 -220 -361 -220 -595 0 -200 50 -349 169 -503 25 -33 423 -435 883 -894 461 -459 840 -843 844 -854 5 -16 -39 -65 -227 -254 -129 -129 -242 -239 -253 -245 -16 -9 -72 44 -435 405 -382 381 -421 417 -483 446 -108 50 -192 64 -291 48 -112 -19 -186 -56 -267 -136 -75 -74 -109 -138 -134 -250 -18 -77 -16 -108 9 -207 32 -127 70 -171 512 -609 210 -209 383 -387 383 -395 0 -9 -45 -60 -101 -115 -167 -165 -225 -256 -255 -393 -18 -86 -18 -144 1 -232 34 -163 129 -298 270 -385 111 -68 158 -80 315 -80 123 1 140 3 199 28 97 41 156 85 283 211 64 64 125 116 135 116 11 0 173 -155 388 -371 431 -432 465 -461 588 -499 258 -81 538 82 602 351 27 116 14 211 -48 338 -29 58 -76 109 -434 465 -222 220 -403 408 -403 418 0 20 474 493 495 493 8 0 385 -370 837 -821 566 -565 842 -833 883 -859 269 -171 589 -196 862 -69 136 64 190 110 616 534 229 229 417 421 417 428 0 6 13 30 29 54 35 54 76 156 102 255 26 105 26 318 0 418 -30 112 -65 191 -128 287 -32 49 -583 604 -2141 2156 -1153 1150 -2115 2105 -2137 2123 -198 159 -461 223 -695 169z m88 -928 c50 -27 4090 -4070 4108 -4111 19 -45 17 -98 -5 -147 -24 -52 -330 -359 -378 -379 -46 -19 -111 -19 -157 0 -26 11 -640 618 -2058 2033 -1111 1109 -2029 2030 -2041 2046 -26 37 -29 141 -5 177 24 36 326 338 371 370 47 34 113 38 165 11z"/> <path d="M14590 7881 c-71 -15 -126 -55 -650 -466 -85 -66 -197 -154 -251 -195 -131 -101 -329 -255 -400 -310 -32 -25 -102 -79 -156 -120 -185 -141 -234 -215 -241 -358 -5 -95 11 -156 59 -226 86 -128 241 -196 376 -167 102 23 107 26 477 314 69 53 128 97 131 97 10 0 5 -50 -9 -82 -8 -18 -38 -89 -66 -158 -109 -262 -290 -598 -439 -815 -30 -44 -68 -100 -85 -125 -17 -25 -73 -98 -126 -164 -52 -65 -107 -134 -122 -153 -64 -83 -305 -338 -409 -434 -63 -57 -119 -108 -125 -114 -6 -5 -42 -35 -79 -65 -38 -30 -85 -69 -104 -86 -186 -160 -574 -410 -858 -552 -173 -87 -468 -213 -548 -235 -11 -3 -60 -20 -110 -37 -93 -33 -125 -42 -310 -90 -144 -37 -351 -80 -384 -80 -67 0 -205 -71 -256 -132 -72 -85 -107 -211 -86 -310 40 -194 185 -314 376 -311 198 3 659 109 1005 230 111 39 183 67 245 93 11 4 45 18 75 30 134 54 358 163 545 266 274 149 559 340 805 538 61 49 281 238 326 280 439 409 833 913 1120 1430 48 86 170 335 211 431 19 44 43 98 53 120 10 22 38 90 62 150 24 62 49 110 56 110 12 0 58 -114 81 -200 5 -16 13 -41 18 -55 6 -14 18 -50 28 -80 20 -66 41 -121 66 -176 73 -160 281 -243 456 -184 78 26 159 84 198 140 65 94 93 240 62 327 -34 94 -39 110 -47 138 -5 17 -13 44 -19 60 -7 17 -79 235 -161 485 -294 891 -333 1006 -355 1050 -29 57 -107 130 -175 165 -41 21 -70 27 -139 30 -47 2 -102 1 -121 -4z"/> </g> </svg>