<?xml version="1.0" standalone="no"?> <!DOCTYPE svg PUBLIC "-//W3C//DTD SVG 20010904//EN" "http://www.w3.org/TR/2001/REC-SVG-20010904/DTD/svg10.dtd"> <svg version="1.0" xmlns="http://www.w3.org/2000/svg" width="1800.000000pt" height="1728.000000pt" viewBox="0 0 1800.000000 1728.000000" preserveAspectRatio="xMidYMid meet"> <g transform="translate(0.000000,1728.000000) scale(0.100000,-0.100000)" fill="#ffffff" stroke="none"> <path d="M3375 14280 c-281 -64 -481 -218 -617 -475 -25 -48 -41 -89 -76 -200 -15 -45 -17 -465 -19 -4653 l-3 -4604 21 -86 c90 -375 337 -626 702 -713 85 -21 252 -26 262 -9 4 6 -7 50 -23 98 -62 181 -122 473 -122 590 0 31 -7 50 -28 74 -15 18 -37 47 -47 63 -20 30 -20 78 -23 3840 -1 2096 0 3820 3 3833 l5 22 5639 0 c5133 0 5639 -1 5645 -16 11 -28 7 -4608 -4 -4624 -11 -17 10 -37 -450 440 -146 151 -368 379 -495 507 -251 253 -251 253 -353 238 -57 -8 -37 11 -832 -819 -63 -66 -168 -175 -233 -242 -66 -67 -137 -143 -159 -168 -23 -25 -49 -46 -58 -46 -14 0 -532 590 -752 857 -21 25 -62 73 -91 106 -30 34 -90 103 -133 153 -177 204 -250 288 -259 298 -6 6 -37 42 -70 80 -91 104 -167 130 -250 83 -27 -15 -122 -119 -287 -312 -137 -160 -265 -310 -286 -335 -36 -42 -105 -123 -392 -465 -60 -71 -143 -170 -185 -220 -42 -49 -100 -119 -129 -155 -30 -36 -120 -143 -200 -238 -125 -149 -146 -180 -152 -217 -12 -85 1 -116 87 -211 157 -171 300 -367 391 -534 20 -36 47 -86 62 -112 65 -120 171 -403 216 -578 34 -132 49 -203 74 -358 13 -78 26 -146 30 -150 4 -4 1110 -8 2457 -10 l2449 -2 5 -23 c4 -13 5 -149 3 -303 -3 -313 -4 -315 -81 -378 l-39 -31 -2391 -5 c-1316 -3 -2398 -9 -2404 -13 -7 -5 -13 -20 -13 -35 -1 -103 -86 -480 -139 -615 -6 -16 -11 -39 -11 -53 l0 -24 2533 2 c2057 3 2540 6 2572 16 22 8 63 21 90 29 158 50 327 170 430 303 88 114 132 208 170 358 l25 97 0 4582 c0 4442 -1 4584 -19 4660 -47 198 -108 315 -234 450 -55 59 -140 125 -207 161 -57 31 -180 76 -255 93 -77 18 -294 18 -5675 18 -5390 -1 -5598 -1 -5675 -19z m540 -747 c113 -52 196 -146 223 -253 19 -78 20 -101 7 -165 -34 -161 -148 -274 -307 -306 -150 -30 -324 62 -395 210 -36 73 -44 203 -18 282 41 123 143 217 269 250 50 13 177 3 221 -18z m1181 0 c68 -31 121 -71 157 -120 168 -229 47 -544 -232 -604 -181 -38 -370 88 -426 285 -53 183 81 410 269 455 58 14 186 5 232 -16z m1200 -10 c74 -35 135 -98 175 -181 30 -61 33 -75 33 -162 -1 -87 -3 -101 -33 -160 -71 -142 -185 -214 -341 -214 -96 0 -186 39 -259 112 -92 93 -131 233 -97 357 39 146 151 252 296 279 60 11 169 -4 226 -31z"/> <path d="M11935 11335 c-188 -17 -285 -36 -492 -101 -62 -20 -115 -40 -119 -45 -3 -5 -12 -9 -20 -9 -20 0 -187 -81 -281 -137 -204 -120 -451 -334 -472 -408 -32 -115 17 -214 123 -250 54 -19 58 -19 109 -1 30 10 71 35 93 55 286 267 549 406 919 485 234 50 545 36 805 -38 257 -72 520 -224 724 -419 56 -54 136 -97 179 -97 36 0 106 32 134 62 27 28 62 105 63 135 0 42 -33 108 -79 156 -78 83 -292 252 -393 312 -93 55 -194 105 -323 160 -95 40 -259 88 -390 114 -87 17 -359 43 -411 40 -11 -1 -86 -7 -169 -14z"/> <path d="M5636 10925 c-43 -15 -91 -57 -112 -97 -12 -23 -14 -215 -14 -1239 l0 -1212 22 -36 c12 -20 28 -42 35 -49 19 -20 95 -52 124 -52 28 0 93 27 144 60 17 11 37 23 45 27 8 4 33 19 55 33 22 14 49 30 60 37 11 6 264 159 563 340 299 180 562 339 585 352 23 13 72 44 109 67 37 24 69 44 71 44 3 0 34 18 68 40 35 22 71 43 79 47 13 5 75 44 165 101 11 6 29 16 40 21 29 13 82 69 100 106 21 45 19 108 -5 155 -26 52 -88 96 -335 243 -11 7 -39 24 -63 40 -24 15 -45 27 -49 27 -3 0 -25 14 -50 30 -24 17 -46 30 -50 30 -3 0 -25 14 -50 30 -24 17 -46 30 -49 30 -3 0 -35 19 -72 43 -37 23 -76 47 -87 54 -22 13 -841 508 -865 523 -224 139 -379 221 -413 220 -7 -1 -29 -7 -51 -15z"/> <path d="M11912 10494 c-242 -37 -496 -162 -674 -333 -63 -60 -81 -83 -94 -125 -15 -48 -15 -57 0 -108 29 -101 115 -151 229 -134 34 5 61 23 142 92 148 127 261 184 433 220 242 50 532 -22 719 -179 35 -29 83 -69 108 -91 41 -35 52 -39 113 -43 90 -6 145 21 184 93 66 119 13 224 -185 367 -137 99 -259 159 -439 216 -121 39 -374 51 -536 25z"/> <path d="M12075 9646 c-5 -2 -30 -10 -55 -17 -94 -27 -174 -100 -216 -196 -32 -71 -33 -168 -2 -248 23 -62 93 -146 142 -173 108 -58 249 -56 348 4 122 76 185 212 158 346 -15 80 -38 123 -91 177 -44 44 -79 66 -139 88 -36 13 -127 25 -145 19z"/> <path d="M6445 7164 c-84 -5 -273 -32 -380 -56 -874 -189 -1611 -850 -1885 -1693 -11 -33 -25 -74 -30 -92 -63 -192 -104 -477 -105 -728 0 -267 32 -487 115 -770 54 -189 213 -515 329 -675 132 -183 230 -299 366 -428 517 -493 1239 -754 1949 -703 238 17 434 55 646 125 318 105 688 324 929 550 300 282 508 581 649 936 108 269 151 457 178 765 25 297 -6 607 -89 905 -34 118 -75 235 -111 315 -65 141 -85 182 -136 270 -299 521 -778 919 -1370 1140 -99 37 -296 86 -465 115 -108 19 -442 33 -590 24z m423 -660 c265 -32 511 -114 708 -235 35 -21 67 -39 70 -39 6 0 16 -8 149 -106 113 -83 297 -271 387 -395 119 -163 268 -464 268 -539 0 -20 -9 -40 -26 -57 l-26 -26 -147 6 c-202 8 -318 31 -696 136 -405 113 -606 145 -915 144 -306 0 -539 -36 -900 -138 -330 -93 -492 -126 -712 -146 -112 -9 -130 -9 -161 6 -49 23 -63 60 -47 125 7 27 16 53 21 56 5 3 9 12 9 21 0 17 84 188 123 250 15 24 27 45 27 47 0 3 32 50 72 106 138 196 370 406 597 540 122 71 315 154 436 186 271 72 506 90 763 58z m-96 -1521 c105 -41 189 -119 241 -223 30 -61 32 -70 32 -180 0 -104 -3 -121 -27 -172 -70 -151 -223 -248 -388 -248 -267 0 -466 241 -413 500 8 40 24 92 35 114 33 65 138 162 210 195 56 26 74 30 165 30 74 1 115 -4 145 -16z m-1762 -546 c115 -25 244 -63 295 -87 170 -78 223 -106 297 -156 210 -142 396 -358 505 -584 114 -237 182 -513 183 -739 0 -94 -2 -107 -22 -128 -35 -37 -100 -32 -248 22 -198 72 -373 164 -515 270 -345 256 -615 638 -721 1020 -32 117 -55 234 -57 293 -2 59 0 65 28 89 28 24 34 25 110 20 44 -4 109 -13 145 -20z m3486 8 c43 -29 47 -62 25 -186 -37 -201 -75 -320 -160 -499 -79 -165 -140 -262 -245 -387 -195 -235 -461 -436 -721 -548 -239 -102 -345 -125 -392 -86 -40 34 -43 60 -28 220 14 144 18 172 52 311 138 570 566 1002 1133 1144 189 47 299 57 336 31z"/> </g> </svg>