<svg xmlns="http://www.w3.org/2000/svg" viewBox="0 0 400 300" width="100%" height="100%">
  <defs>
    <filter id="shadow-blur" x="-20%" y="-20%" width="140%" height="140%">
      <feGaussianBlur stdDeviation="4" />
    </filter>
    <filter id="shadow-blur-small" x="-20%" y="-20%" width="140%" height="140%">
      <feGaussianBlur stdDeviation="2" />
    </filter>
  </defs>

  <ellipse cx="200" cy="182" rx="160" ry="90" fill="#000000" opacity="0.15" filter="url(#shadow-blur)" />

  <ellipse cx="200" cy="175" rx="160" ry="90" fill="#b4b6b8" />
  <path d="M 40 150 L 40 175 A 160 90 0 0 0 360 175 L 360 150 A 160 90 0 0 1 40 150 Z" fill="#b4b6b8" />

  <ellipse cx="200" cy="150" rx="159" ry="89" fill="#e4e6e7" stroke="#ffffff" stroke-width="2" />

  <ellipse cx="200" cy="155" rx="115" ry="64" fill="#000000" opacity="0.25" filter="url(#shadow-blur)" />

  <ellipse cx="200" cy="150" rx="115" ry="64" fill="#46484a" />
  <path d="M 85 135 L 85 150 A 115 64 0 0 0 315 150 L 315 135 A 115 64 0 0 1 85 135 Z" fill="#46484a" />

  <path d="M 130 135 A 70 39 0 0 1 270 135 L 270 145 A 70 39 0 0 0 130 145 Z" fill="#333537" />

  <ellipse cx="200" cy="145" rx="70" ry="39" fill="#dcdedd" stroke="#ffffff" stroke-width="1" />

  <path d="M 85 135 A 115 64 0 1 0 315 135 A 115 64 0 1 0 85 135 M 130 135 A 70 39 0 1 1 270 135 A 70 39 0 1 1 130 135" fill-rule="evenodd" fill="#5a5c5f" stroke="#7b7e81" stroke-width="2" />

  <ellipse cx="200" cy="149" rx="50" ry="28" fill="#000000" opacity="0.25" filter="url(#shadow-blur-small)" />

  <ellipse cx="200" cy="145" rx="50" ry="28" fill="#46484a" />
  <path d="M 150 135 L 150 145 A 50 28 0 0 0 250 145 L 250 135 A 50 28 0 0 1 150 135 Z" fill="#46484a" />

  <ellipse cx="200" cy="135" rx="49" ry="27" fill="#5a5c5f" stroke="#7b7e81" stroke-width="2" />
</svg>
