<?xml version="1.0" encoding="UTF-8" standalone="no"?>
<svg
   xmlns:dc="http://purl.org/dc/elements/1.1/"
   xmlns:cc="http://creativecommons.org/ns#"
   xmlns:rdf="http://www.w3.org/1999/02/22-rdf-syntax-ns#"
   xmlns:svg="http://www.w3.org/2000/svg"
   xmlns="http://www.w3.org/2000/svg"
   xmlns:sodipodi="http://sodipodi.sourceforge.net/DTD/sodipodi-0.dtd"
   xmlns:inkscape="http://www.inkscape.org/namespaces/inkscape"
   viewBox="0 0 400 300"
   width="100%"
   height="100%"
   version="1.1"
   id="svg949"
   sodipodi:docname="portal-blue.svg"
   inkscape:version="1.0.1 (3bc2e813f5, 2020-09-07)">
  <metadata
     id="metadata953">
    <rdf:RDF>
      <cc:Work
         rdf:about="">
        <dc:format>image/svg+xml</dc:format>
        <dc:type
           rdf:resource="http://purl.org/dc/dcmitype/StillImage" />
        <dc:title></dc:title>
      </cc:Work>
    </rdf:RDF>
  </metadata>
  <sodipodi:namedview
     pagecolor="#ffffff"
     bordercolor="#666666"
     borderopacity="1"
     objecttolerance="10"
     gridtolerance="10"
     guidetolerance="10"
     inkscape:pageopacity="0"
     inkscape:pageshadow="2"
     inkscape:window-width="1920"
     inkscape:window-height="1001"
     id="namedview951"
     showgrid="false"
     inkscape:zoom="2.6722745"
     inkscape:cx="200"
     inkscape:cy="164.96852"
     inkscape:window-x="-9"
     inkscape:window-y="-9"
     inkscape:window-maximized="1"
     inkscape:current-layer="svg949" />
  <defs
     id="defs919">
    <filter
       id="shadow-blur"
       x="-20%"
       y="-20%"
       width="140%"
       height="140%">
      <feGaussianBlur
         stdDeviation="4"
         id="feGaussianBlur913" />
    </filter>
    <filter
       id="shadow-blur-small"
       x="-20%"
       y="-20%"
       width="140%"
       height="140%">
      <feGaussianBlur
         stdDeviation="2"
         id="feGaussianBlur916" />
    </filter>
  </defs>
  <ellipse
     cx="200"
     cy="182"
     rx="160"
     ry="90"
     fill="#000000"
     opacity="0.15"
     filter="url(#shadow-blur)"
     id="ellipse921" />
  <ellipse
     cx="200"
     cy="175"
     rx="160"
     ry="90"
     fill="#b4b6b8"
     id="ellipse923" />
  <path
     d="M 40 150 L 40 175 A 160 90 0 0 0 360 175 L 360 150 A 160 90 0 0 1 40 150 Z"
     fill="#b4b6b8"
     id="path925"
     style="fill:#075e7f;fill-opacity:1" />
  <ellipse
     cx="200"
     cy="150"
     rx="159"
     ry="89"
     fill="#e4e6e7"
     stroke="#ffffff"
     stroke-width="2"
     id="ellipse927"
     style="fill:#0b76a0;fill-opacity:1" />
  <ellipse
     cx="200"
     cy="155"
     rx="115"
     ry="64"
     fill="#000000"
     opacity="0.25"
     filter="url(#shadow-blur)"
     id="ellipse929" />
  <ellipse
     cx="200"
     cy="150"
     rx="115"
     ry="64"
     fill="#46484a"
     id="ellipse931" />
  <path
     d="M 85 135 L 85 150 A 115 64 0 0 0 315 150 L 315 135 A 115 64 0 0 1 85 135 Z"
     fill="#46484a"
     id="path933"
     style="fill:#83cbeb;fill-opacity:1" />
  <path
     d="M 130 135 A 70 39 0 0 1 270 135 L 270 145 A 70 39 0 0 0 130 145 Z"
     fill="#333537"
     id="path935"
     style="fill:#83cbeb;fill-opacity:1" />
  <ellipse
     cx="200"
     cy="145"
     rx="70"
     ry="39"
     fill="#dcdedd"
     stroke="#ffffff"
     stroke-width="1"
     id="ellipse937"
     style="fill:#0b76a0;fill-opacity:1" />
  <path
     d="m 85,135 c 0,14.05685 8.143088,27.05523 21.94721,37.61383 20.90664,15.99122 54.79843,26.38614 93.05279,26.38614 63.51274,0 115,-28.65372 115,-63.99997 C 315,99.653752 263.51274,71.000028 200,71.000028 136.48726,71.000028 85,99.653752 85,135 m 45,0 c 0,-21.53912 31.34007,-38.999983 70,-38.999983 38.65993,0 70,17.460863 70,38.999983 0,21.53912 -31.34007,38.99998 -70,38.99998 -38.65993,0 -70,-17.46086 -70,-38.99998"
     fill-rule="evenodd"
     fill="#5a5c5f"
     stroke="#7b7e81"
     stroke-width="2"
     id="path939"
     style="fill:#c1e5f5;fill-opacity:1;stroke:#ffffff;stroke-opacity:1"
     sodipodi:nodetypes="cssssccsssc" />
  <ellipse
     cx="200"
     cy="149"
     rx="50"
     ry="28"
     fill="#000000"
     opacity="0.25"
     filter="url(#shadow-blur-small)"
     id="ellipse941" />
  <ellipse
     cx="200"
     cy="145"
     rx="50"
     ry="28"
     fill="#46484a"
     id="ellipse943" />
  <path
     d="M 150 135 L 150 145 A 50 28 0 0 0 250 145 L 250 135 A 50 28 0 0 1 150 135 Z"
     fill="#46484a"
     id="path945"
     style="fill:#83cbeb;fill-opacity:1" />
  <ellipse
     cx="200"
     cy="136.87106"
     rx="49"
     ry="28.496853"
     fill="#5a5c5f"
     stroke="#7b7e81"
     stroke-width="2"
     id="ellipse947"
     style="fill:#dceaf7;fill-opacity:1;stroke:#ffffff;stroke-opacity:1" />
</svg>
